<svg data-v-423bf9ae="" xmlns="http://www.w3.org/2000/svg" viewBox="0 0 360 96" class="iconLeft"><!----><!----><!----><g data-v-423bf9ae="" id="ac3fefdf-e071-4ac3-9ade-726598cde0e8" fill="white" transform="matrix(4.2283302189378364,0,0,4.2283302189378364,104.62924321004675,6.583871284021114)"><path d="M-0.05 16.88L-0.55 16.08Q0.08 15.67 0.46 15.24Q0.84 14.81 1.05 14.32Q1.26 13.83 1.33 13.28Q1.39 12.72 1.39 12.07L1.39 12.07L1.39 3.63L3.10 3.63L3.10 11.59Q3.10 12.48 2.95 13.25Q2.80 14.02 2.44 14.68Q2.08 15.35 1.48 15.90Q0.88 16.45-0.05 16.88L-0.05 16.88ZM8.71 13.78L8.71 13.78Q7.85 13.78 7.20 13.49Q6.55 13.21 6.10 12.72Q5.66 12.23 5.43 11.59Q5.20 10.94 5.20 10.23L5.20 10.23Q5.20 9.40 5.50 8.68Q5.79 7.96 6.32 7.42Q6.85 6.88 7.58 6.57Q8.31 6.26 9.19 6.26L9.19 6.26Q10.04 6.26 10.70 6.55Q11.35 6.84 11.80 7.33Q12.24 7.82 12.47 8.47Q12.70 9.11 12.70 9.83L12.70 9.83Q12.70 10.66 12.40 11.39Q12.11 12.11 11.57 12.64Q11.04 13.17 10.31 13.48Q9.58 13.78 8.71 13.78ZM9.00 12.60L9.00 12.60Q9.43 12.60 9.80 12.42Q10.16 12.24 10.42 11.91Q10.68 11.59 10.82 11.14Q10.96 10.68 10.96 10.14L10.96 10.14Q10.96 9.60 10.82 9.12Q10.68 8.63 10.42 8.26Q10.15 7.89 9.77 7.67Q9.39 7.44 8.90 7.44L8.90 7.44Q8.46 7.44 8.09 7.63Q7.73 7.81 7.48 8.14Q7.22 8.47 7.08 8.92Q6.93 9.38 6.93 9.92L6.93 9.92Q6.93 10.46 7.07 10.94Q7.21 11.43 7.48 11.80Q7.75 12.17 8.13 12.38Q8.51 12.60 9.00 12.60ZM14.55 13.33L14.55 2.69L16.20 2.69L16.20 7.52Q16.50 7.25 16.81 7.02Q17.11 6.79 17.43 6.63Q17.75 6.46 18.09 6.36Q18.43 6.26 18.81 6.26L18.81 6.26Q19.46 6.26 19.98 6.55Q20.50 6.84 20.87 7.33Q21.23 7.81 21.42 8.44Q21.62 9.07 21.62 9.75L21.62 9.75Q21.62 10.59 21.32 11.32Q21.03 12.06 20.47 12.61Q19.91 13.15 19.08 13.47Q18.26 13.78 17.21 13.78L17.21 13.78Q16.65 13.78 15.96 13.68Q15.26 13.58 14.55 13.33L14.55 13.33ZM16.20 8.41L16.20 12.28Q16.57 12.45 16.93 12.52Q17.29 12.60 17.61 12.60L17.61 12.60Q18.18 12.60 18.60 12.38Q19.03 12.17 19.32 11.81Q19.61 11.44 19.75 10.98Q19.89 10.51 19.89 10.00L19.89 10.00Q19.89 9.52 19.77 9.07Q19.65 8.63 19.40 8.29Q19.16 7.94 18.81 7.73Q18.46 7.53 18.01 7.53L18.01 7.53Q17.63 7.53 17.18 7.71Q16.73 7.90 16.20 8.41L16.20 8.41ZM25.42 13.64L23.73 13.64L23.73 3.63L29.82 3.63L29.59 4.83L25.42 4.83L25.42 7.85L29.11 7.85L28.90 9.02L25.42 9.02L25.42 13.64ZM31.41 13.64L31.41 6.40L32.75 6.40L32.98 8.56Q33.08 8.38 33.18 8.19Q33.28 8.00 33.39 7.83Q33.49 7.66 33.58 7.51Q33.67 7.37 33.73 7.27L33.73 7.27Q33.87 7.06 34.05 6.87Q34.23 6.69 34.45 6.55Q34.66 6.42 34.90 6.34Q35.15 6.26 35.44 6.26L35.44 6.26Q35.64 6.26 35.83 6.31Q36.03 6.36 36.17 6.46L36.17 6.46L35.99 7.98Q35.87 7.95 35.70 7.94Q35.54 7.93 35.41 7.93L35.41 7.93Q34.97 7.93 34.63 8.06Q34.29 8.18 34.01 8.40Q33.74 8.63 33.51 8.93Q33.28 9.23 33.07 9.58L33.07 9.58L33.07 13.64L31.41 13.64ZM43.37 12.15L43.37 12.98Q43.07 13.19 42.72 13.34Q42.37 13.49 42 13.59Q41.63 13.69 41.27 13.74Q40.90 13.78 40.57 13.78L40.57 13.78Q39.81 13.78 39.16 13.55Q38.51 13.32 38.02 12.87Q37.54 12.41 37.27 11.75Q37.00 11.09 37.00 10.24L37.00 10.24Q37.00 9.33 37.30 8.59Q37.61 7.85 38.13 7.34Q38.64 6.82 39.32 6.54Q40.00 6.26 40.74 6.26L40.74 6.26Q41.36 6.26 41.89 6.46Q42.42 6.67 42.80 7.06Q43.19 7.46 43.41 8.05Q43.63 8.65 43.63 9.43L43.63 9.43Q43.63 9.63 43.61 9.84Q43.59 10.06 43.55 10.26L43.55 10.26L38.71 10.26Q38.71 10.81 38.91 11.24Q39.10 11.66 39.46 11.95Q39.81 12.23 40.31 12.38Q40.81 12.52 41.41 12.52L41.41 12.52Q41.58 12.52 41.81 12.51Q42.04 12.50 42.30 12.46Q42.56 12.41 42.83 12.34Q43.11 12.27 43.37 12.15L43.37 12.15ZM38.71 9.45L42.09 9.45Q42.09 8.96 41.96 8.58Q41.84 8.20 41.62 7.95Q41.40 7.70 41.11 7.57Q40.82 7.44 40.48 7.44L40.48 7.44Q40.11 7.44 39.79 7.59Q39.46 7.75 39.22 8.02Q38.99 8.29 38.85 8.65Q38.71 9.02 38.71 9.45L38.71 9.45ZM49.43 12.58L49.43 12.58Q49.25 12.73 49.00 12.94Q48.75 13.15 48.45 13.33Q48.15 13.52 47.79 13.65Q47.43 13.78 47.03 13.78L47.03 13.78Q46.63 13.78 46.28 13.63Q45.94 13.49 45.68 13.22Q45.42 12.96 45.28 12.60Q45.13 12.23 45.13 11.79L45.13 11.79Q45.13 11.32 45.32 10.88Q45.51 10.43 45.95 10.08Q46.39 9.73 47.11 9.52Q47.84 9.30 48.90 9.30L48.90 9.30L49.40 9.30L49.40 8.74Q49.40 8.44 49.30 8.20Q49.20 7.96 49.01 7.79Q48.83 7.62 48.57 7.53Q48.32 7.44 48.00 7.44L48.00 7.44Q47.76 7.44 47.48 7.50Q47.20 7.56 46.92 7.66Q46.65 7.77 46.39 7.91Q46.13 8.05 45.92 8.21L45.92 8.21L45.80 8.14L45.49 6.99Q46.31 6.56 47.02 6.41Q47.74 6.26 48.36 6.26L48.36 6.26Q49 6.26 49.50 6.39Q50.00 6.52 50.35 6.79Q50.70 7.06 50.88 7.48Q51.06 7.89 51.06 8.46L51.06 8.46L51.06 11.81Q51.06 11.91 51.08 12.03Q51.10 12.15 51.15 12.26Q51.20 12.37 51.30 12.45Q51.40 12.52 51.56 12.52L51.56 12.52Q51.66 12.52 51.80 12.50Q51.93 12.47 52.07 12.41L52.07 12.41L52.07 13.23Q51.70 13.48 51.33 13.63Q50.97 13.78 50.62 13.78L50.62 13.78Q50.35 13.78 50.15 13.68Q49.95 13.58 49.81 13.41Q49.68 13.24 49.58 13.03Q49.49 12.81 49.43 12.58ZM49.40 11.70L49.40 10.11L48.97 10.11Q48.26 10.11 47.83 10.21Q47.39 10.31 47.15 10.48Q46.92 10.66 46.84 10.89Q46.76 11.12 46.76 11.38L46.76 11.38Q46.76 11.66 46.84 11.87Q46.92 12.09 47.06 12.23Q47.20 12.37 47.39 12.45Q47.58 12.52 47.80 12.52L47.80 12.52Q47.97 12.52 48.15 12.49Q48.32 12.45 48.52 12.35Q48.71 12.26 48.93 12.10Q49.15 11.94 49.40 11.70L49.40 11.70ZM53.55 13.64L53.55 2.69L55.20 2.69L55.20 13.64L53.55 13.64ZM60.31 13.64L58.30 13.64L55.60 9.82L58.42 6.42L60.09 6.42L57.25 9.62L60.31 13.64Z"></path></g><!----><g data-v-423bf9ae="" id="846b42c8-c43a-4e5c-878a-3794e7bfa22d" transform="matrix(1.032344479031033,0,0,1.032344479031033,-9.47970702525636,-3.0727094062844955)" stroke="none" fill="white"><ellipse cx="49.993" cy="23.121" rx="19.364" ry="19.577"></ellipse><path d="M40.234 57.781l9.581-9.687 10.31 9.535-9.472 29.474-10.419-29.322M38.729 53.174l1.142 2.915 9.018-8.995M61.258 53.174l-.954 2.805-9.452-8.995M46.028 96.455L29.224 45.954s-17.101-2.909-19.087 6.916v36.636M89.862 89.505V52.869c-1.985-9.825-19.087-6.916-19.087-6.916L53.972 96.455m28.237-18.453H70.917l-1-10.563h13.292l-1 10.563z"></path><path d="M71.917 69.177h9.481v1.042h-9.481z"></path></g><!----></svg>